<svg xmlns="http://www.w3.org/2000/svg" viewBox="0 0 48 48"><defs><style>.cls-1{fill:#4d4d4f;}.cls-2{fill:none;}</style></defs><title>자산 10</title><g id="레이어_2" data-name="레이어 2"><g id="OBJECTS"><path class="cls-1" d="M30.47,6.55H17.53a11,11,0,0,0-11,11V30.47a11,11,0,0,0,11,11H30.47a11,11,0,0,0,11-11V17.53A11,11,0,0,0,30.47,6.55ZM40,30.47A9.55,9.55,0,0,1,30.47,40H17.53A9.55,9.55,0,0,1,8,30.47V17.53A9.55,9.55,0,0,1,17.53,8H30.47A9.55,9.55,0,0,1,40,17.53Z"/><polygon class="cls-1" points="24.73 16 23.27 16 23.27 23.27 16 23.27 16 24.73 23.27 24.73 23.27 32 24.73 32 24.73 24.73 32 24.73 32 23.27 24.73 23.27 24.73 16"/><rect class="cls-2" width="48" height="48"/></g></g></svg>