<svg xmlns="http://www.w3.org/2000/svg" viewBox="0 0 48 48"><defs><style>.cls-1{fill:#4d4d4f;}.cls-2{fill:none;}</style></defs><title>자산 4</title><g id="레이어_2" data-name="레이어 2"><g id="OBJECTS"><path class="cls-1" d="M38.79,24.77c-2,3.79-10.58,10.37-13.67,12.68a1.88,1.88,0,0,1-2.24,0c-3.09-2.31-11.65-8.89-13.67-12.68A10.14,10.14,0,0,1,12.5,11.49,8.37,8.37,0,0,1,17,10.18a8.8,8.8,0,0,1,7,3.63,8.77,8.77,0,0,1,7-3.63,8.39,8.39,0,0,1,4.48,1.31A10.16,10.16,0,0,1,38.79,24.77Z"/><rect class="cls-2" width="48" height="48"/></g></g></svg>