<svg xmlns="http://www.w3.org/2000/svg" viewBox="0 0 48 48"><defs><style>.cls-1{fill:#4d4d4f;}.cls-2{fill:none;}</style></defs><title>자산 9</title><g id="레이어_2" data-name="레이어 2"><g id="OBJECTS"><path class="cls-1" d="M35.5,11.48A8.47,8.47,0,0,0,31,10.18a8.77,8.77,0,0,0-7,3.63,8.77,8.77,0,0,0-7-3.63,8.44,8.44,0,0,0-4.48,1.3A10.16,10.16,0,0,0,9.21,24.76c2,3.8,10.58,10.38,13.67,12.68a1.84,1.84,0,0,0,2.24,0c3.09-2.3,11.65-8.88,13.67-12.68A10.16,10.16,0,0,0,35.5,11.48Zm2,12.6c-1.52,2.84-7.85,8.16-13.26,12.2a.43.43,0,0,1-.5,0c-5.42-4-11.74-9.36-13.26-12.2a8.69,8.69,0,0,1,2.78-11.36A7,7,0,0,1,17,11.64a7.29,7.29,0,0,1,5.85,3L24,16.25l1.17-1.57a7.29,7.29,0,0,1,5.85-3,7,7,0,0,1,3.71,1.08A8.69,8.69,0,0,1,37.51,24.08Z"/><rect class="cls-2" width="48" height="48"/></g></g></svg>