<svg xmlns="http://www.w3.org/2000/svg" viewBox="0 0 48 48"><defs><style>.cls-1{fill:#4d4d4f;}.cls-2{fill:none;}</style></defs><title>자산 12</title><g id="레이어_2" data-name="레이어 2"><g id="OBJECTS"><path class="cls-1" d="M38.92,23.22,25.45,9.69a2.05,2.05,0,0,0-2.9,0L9.08,23.22A3.71,3.71,0,0,0,8,25.83V36.7a2.21,2.21,0,0,0,2.21,2.21h8.68a2.21,2.21,0,0,0,2.2-2.21V30.15a2.91,2.91,0,1,1,5.82,0V36.7a2.21,2.21,0,0,0,2.2,2.21h8.68A2.21,2.21,0,0,0,40,36.7V25.83A3.71,3.71,0,0,0,38.92,23.22ZM38.54,36.7a.75.75,0,0,1-.75.75H29.11a.76.76,0,0,1-.75-.75V30.15a4.36,4.36,0,1,0-8.72,0V36.7a.76.76,0,0,1-.75.75H10.21a.75.75,0,0,1-.75-.75V25.83a2.24,2.24,0,0,1,.64-1.57L23.58,10.72a.6.6,0,0,1,.84,0L37.9,24.26a2.24,2.24,0,0,1,.64,1.57Z"/><rect class="cls-2" width="48" height="48"/></g></g></svg>