<svg xmlns="http://www.w3.org/2000/svg" viewBox="0 0 48 48"><defs><style>.cls-1{fill:#4d4d4f;}.cls-2{fill:none;}</style></defs><title>자산 7</title><g id="레이어_2" data-name="레이어 2"><g id="OBJECTS"><path class="cls-1" d="M40,25.83V36.7a2.21,2.21,0,0,1-2.21,2.21H29.11a2.2,2.2,0,0,1-2.2-2.21V30.14a2.91,2.91,0,0,0-5.82,0V36.7a2.2,2.2,0,0,1-2.2,2.21H10.2A2.21,2.21,0,0,1,8,36.7V25.83a3.65,3.65,0,0,1,1.08-2.6L22.55,9.69a2.05,2.05,0,0,1,2.9,0L38.92,23.23A3.65,3.65,0,0,1,40,25.83Z"/><rect class="cls-2" width="48" height="48"/></g></g></svg>