<svg xmlns="http://www.w3.org/2000/svg" viewBox="0 0 48 48"><defs><style>.cls-1{fill:#4d4d4f;}.cls-2{fill:none;}</style></defs><title>자산 8</title><g id="레이어_2" data-name="레이어 2"><g id="OBJECTS"><path class="cls-1" d="M24,27.27a9.45,9.45,0,1,0-9.45-9.45A9.46,9.46,0,0,0,24,27.27ZM24,9.84a8,8,0,1,1-8,8A8,8,0,0,1,24,9.84Z"/><path class="cls-1" d="M31.81,28.72H16.19a8.92,8.92,0,0,0-8.92,8.91V39a.73.73,0,0,0,1.46-.06V37.63a7.46,7.46,0,0,1,7.46-7.46H31.81a7.46,7.46,0,0,1,7.46,7.46v1.26a.73.73,0,0,0,1.46.06V37.63A8.92,8.92,0,0,0,31.81,28.72Z"/><rect class="cls-2" width="48" height="48"/></g></g></svg>